<?xml version="1.0" encoding="utf-8"?>
<!-- Generator: Adobe Illustrator 24.1.0, SVG Export Plug-In . SVG Version: 6.00 Build 0)  -->
<svg version="1.1" id="site-logo" xmlns="http://www.w3.org/2000/svg" xmlns:xlink="http://www.w3.org/1999/xlink" x="0px" y="0px"
	 viewBox="0 0 430 70" style="enable-background:new 0 0 430 70;" xml:space="preserve">
<path d="M69.2,61.1c2.9-1.9,5.7-4.1,5.7-8.5V25l-4.4-4.6l-1.7,1.7l3.8,4v26.4c0,3.7-1.3,6.4-3.6,8.2L69.2,61.1z M52.3,2.7L52.3,3
	c1.3,0.5,2.8,1.8,2.8,4.3V48l-1.6,1.6l6.1,5.2l1.8-1.5l-4.9-4l0.9-0.8V7.7C57.4,4.5,54.5,2.9,52.3,2.7 M56,63.9
	c7.8-0.6,15.5-3.2,15.5-11.5v-26L68,22.9l-3.9,3.8v19.5l3.2,2.9l-7.4,6.6h-0.7L52,49.5l2-1.9V7.8c0-3-2.5-4.6-4.1-4.9V2.2
	c0.7-0.4,1.8-0.6,3.2-0.6c2.5,0,4.8,1.5,5.5,3.1h0.2c1.5-2.2,3.9-3.1,6.2-3.2c0.7,0,1.5,0.1,2.3,0.3v0.8c-1.3,0.4-3.2,2-3.2,5.9
	v16.5l9.6-9.2h0.7c0.7,0.7,4.9,4.5,5.7,5c0.4,0.2,0.9,0.4,1.3,0.4c0.8,0,1.3-0.3,2-0.6v1c-0.8,0.7-1.7,2-1.7,3.6v22.5
	c0,10-10.9,16-25.7,17.1C56,65,56,63.9,56,63.9z M100.3,20.5l-1.9,1.4c2.2,2.6,5.1,6,7.9,9.1l2-1.4
	C105.4,26.5,102.6,23.1,100.3,20.5 M98,36.5l7.2-4.9c-2.5-2.9-5.1-5.8-7.2-8.2V36.5z M102.7,53.1c-4.3-2-8.2-3.5-11.7-5.4
	c0.2-1.3,0.3-2.8,0.3-7V24.4L89,25.6v15.2c0,4.2-0.1,6.9-0.4,8.1c3.4,1.9,8.2,3.9,12.6,5.8L102.7,53.1z M87.8,24.9
	c4.3-2.1,10.7-5.9,15-9h0.8c2.8,2.9,6.9,7.6,10.4,10.7v0.8L98,37.8v6.4c1.7,1,6.3,3.4,9.1,4.3l6.4-6.2l0.8,0.8l-12.9,12.5h-0.8
	c-4.3-1.9-10-4.3-13.6-6.3c0.4-1.3,0.8-4.7,0.8-8.8V24.9z M415.3,61c2.9-1.9,5.7-4.1,5.7-8.5V24.9l-4.4-4.6l-1.7,1.7l3.8,4v26.4
	c0,3.7-1.4,6.4-3.6,8.2C415.1,60.7,415.3,61,415.3,61z M398.5,2.6l-0.1,0.3c1.3,0.5,2.9,1.8,2.9,4.3v40.6l-1.6,1.6l6.1,5.2l1.8-1.5
	l-4.9-4l0.9-0.8V7.6C403.5,4.4,400.6,2.8,398.5,2.6 M402.1,63.8c7.8-0.6,15.5-3.2,15.5-11.5v-26l-3.5-3.6l-3.9,3.8v19.5l3.2,2.9
	l-7.4,6.6h-0.7l-7.3-6.2l2-1.9V7.7c0-3-2.5-4.6-4.1-4.9V2.1c0.7-0.4,1.8-0.6,3.2-0.6c2.5,0,4.8,1.5,5.5,3.1h0.2
	c1.5-2.2,3.9-3.1,6.2-3.2c0.7,0,1.5,0.1,2.3,0.3v0.8c-1.3,0.4-3.1,2-3.1,5.9V25l9.6-9.2h0.7c0.7,0.7,4.9,4.5,5.7,5
	c0.4,0.2,0.9,0.4,1.4,0.4c0.8,0,1.4-0.3,2-0.6v1.4c-0.8,0.7-1.7,2-1.7,3.6v22.2c0,10-10.9,16-25.7,17.1L402.1,63.8L402.1,63.8z
	 M195,20.5l-1.9,1.4c2.2,2.6,5.1,6,7.9,9.1l2-1.4C200.2,26.5,197.3,23,195,20.5 M192.9,36.4l7.2-4.9c-2.5-2.9-5.1-5.8-7.2-8.2V36.4z
	 M197.5,53c-4.3-2-8.2-3.5-11.7-5.4c0.2-1.3,0.3-2.8,0.3-7V24.3l-2.3,1.2v15.2c0,4.2-0.1,6.9-0.4,8.1c3.4,1.9,8.2,3.9,12.6,5.8
	L197.5,53z M182.7,24.8c4.3-2.1,10.7-5.9,15-9h0.8c2.8,2.9,6.9,7.6,10.4,10.7v0.8l-16,10.4v6.4c1.6,1,6.3,3.4,9.1,4.3l6.4-6.2
	l0.8,0.8l-12.9,12.5h-0.8c-4.4-1.9-10-4.3-13.6-6.3c0.4-1.3,0.8-4.6,0.8-8.8L182.7,24.8L182.7,24.8z M222.3,52.9
	c-2.9-0.8-5.8-2.7-5.8-6.7V9.8l-3.2-3.3l-1.7,1.7l2.6,2.7v36.2c0,4.1,3.3,6.7,6.4,7.5L222.3,52.9L222.3,52.9z M223.3,6.7v38.5
	c0,1.6,1.6,3.2,3.1,3.5l2.3-2.3l0.7,0.8l-8.2,8.4h-0.4c-3.1-0.7-7.6-3.5-7.6-8.3V11.5l-2.3-2.3l-2.4,2.4l-0.7-0.8l9.2-9.3h0.6
	L223.3,6.7L223.3,6.7z M245.4,20.5l-1.9,1.4c2.2,2.6,5.1,6,7.9,9.1l2-1.4C250.6,26.4,247.7,23,245.4,20.5 M243.2,36.4l7.2-4.9
	c-2.5-2.9-5.1-5.8-7.2-8.2V36.4z M247.8,53c-4.3-2-8.2-3.5-11.7-5.4c0.2-1.3,0.3-2.8,0.3-7V24.3l-2.3,1.2v15.2
	c0,4.2-0.1,6.9-0.4,8.1c3.4,1.9,8.2,3.9,12.6,5.8L247.8,53L247.8,53z M233,24.8c4.3-2.1,10.7-5.9,15-9h0.8
	c2.8,2.9,6.9,7.6,10.4,10.7v0.8l-15.9,10.4v6.4c1.6,1,6.3,3.4,9.1,4.3l6.4-6.2l0.8,0.8l-13,12.5h-0.8c-4.3-1.9-10-4.3-13.6-6.3
	c0.4-1.3,0.8-4.6,0.8-8.8L233,24.8L233,24.8z M313.9,23c1.3,1.2,3.1,2.9,4.6,4.2l1.5-1.7c-1.4-1.3-3.6-3.1-4.6-4.2
	C315.3,21.2,313.9,23,313.9,23z M310,52.9c-3-0.8-5.8-2.7-5.8-6.7v-22l-3.1-3.2l-1.8,1.7l2.6,2.7v21.8c0,4.1,3.3,6.7,6.4,7.5
	L310,52.9L310,52.9z M310.9,26.4v18.9c0,1.7,1.5,3.1,3.1,3.4l2.3-2.2l0.7,0.8l-8.2,8.4h-0.5c-3.1-0.7-7.5-3.5-7.5-8.3V25.8l-2.3-2.3
	l-2.4,2.4l-0.8-0.8l9.2-9.3h0.7l5.8,5.7v3.1l7.4-8.8h0.7c1.5,1.5,3.8,3.7,5.8,5.2v0.1l-6.2,7.4h-0.1c-1.7-1.5-4-3.6-5.3-4.9
	C313.1,23.7,310.9,26.4,310.9,26.4z M342.7,46.7V35c-2.3-0.6-4.7-1.6-7-2.7v14.5l4.1,2.5L342.7,46.7z M352,53c-2.8-1-5.8-3.1-5.8-7
	V25.7l-11.1-5.6c-0.3,0.2-1.6,1.1-2,1.4l10.7,5.6v19.7c0,3.8,3.5,6.7,6.4,7.8L352,53z M342.7,33.8v-6.1l-10.5-5.5
	c-0.8,0.6-3.6,2.3-4.5,2.8C330.2,28.3,336.7,32.3,342.7,33.8 M336.4,52.8l-7.4-4.9V37l-2.2,1.7v10.6l7.9,5.3
	C334.7,54.5,336.4,52.8,336.4,52.8z M334.5,55.6l-8.9-5.9V38.1c2.2-1.6,6.9-4.8,9.1-6.4c-3.5-1.9-6.5-4.2-8.3-6.4v-0.8
	c5.3-3,9.1-5.8,12.3-8.7h0.7c0,0,10.9,5.2,11.5,5.4c0.6,0.3,1,0.5,1.6,0.5c0.8,0,1.4-0.2,2.2-0.6v1.2c-0.8,0.6-1.7,1.7-1.7,3.4v19.5
	c0,2,1.8,3.4,3.1,3.7l2.3-2.3l0.7,0.8l-8.2,8.4h-0.5c-3.2-0.9-6.8-4-7.4-7.6l-7.9,7.7C335,55.7,334.5,55.7,334.5,55.6z M280.5,46.7
	V26.5l-7.4-3.2v23l4.6,3.1L280.5,46.7z M284,24.2l-10.9-4.6v2.4l8.5,3.7v22.2c0,4.8,2.1,10,5.3,14l1.7-1.7
	c-2.8-3.7-4.7-7.8-4.7-12.6L284,24.2L284,24.2z M272.3,54.5l1.8-1.6l-7.8-5V24.1l-2.2,1.6v23.3L272.3,54.5L272.3,54.5z M269.2,63.9
	c-2.9,0-5.4,1.3-6.9,3.3v0.4c1.7-1,3.7-1.6,6.9-1.6c3.8,0,8.7,1.1,11.5,2.6l1.5-1.8C278.9,65.2,274.2,63.9,269.2,63.9 M262.9,49.5
	V25l13-9.1h0.8c2.5,1.1,10.9,4.6,11.9,5.1c0.4,0.1,0.9,0.3,1.4,0.3c0.8,0,1.6-0.3,2.5-0.7V22c-0.8,0.7-1.8,2.2-1.8,3.4v20.8
	c0,4.9,1,7.7,3,9.7v0.8c-2.9,2.9-9.5,9.7-12.4,13.3h-0.5c-2.8-1.6-7.6-2.8-11.5-2.8c-2.9,0-6.1,0.8-8.6,2.7l-0.6-0.5
	c2.2-5.2,7-10.5,13.1-10.5c3.8,0,8.8,1.6,13,3.9c-2.9-3.3-5.5-9.4-5.6-14.5l-7.7,7.4h-0.6L262.9,49.5L262.9,49.5z M379.1,22.3l4,3.9
	v21.4l2.3-1.3V25l-4.5-4.5L379.1,22.3L379.1,22.3z M380.7,55.2c0.4-0.6,1.2-1.4,1.6-1.9l-7.9-1.7v2.2L380.7,55.2z M381.9,47.6V26.5
	l-3.5-3.6l-3.9,3.7v19.5C376.2,46.5,381,47.4,381.9,47.6 M365.5,62.1l-1.6,1.5l5.9,5.1l1.8-1.6l-4.6-3.9l0.8-0.8v-38l-3.3-3.3
	l-1.6,1.6l2.6,2.7V62.1z M374.4,25l9.6-9.1h0.7c0.7,0.7,5.1,4.6,5.8,5.1c0.4,0.2,0.9,0.3,1.3,0.3c0.8,0,1.4-0.3,2-0.6V22
	c-0.8,0.6-1.7,2-1.7,3.6v23.5c-4.1,1-7.4,3.2-10.9,7.3h-0.3l-6.4-1.3v5.2l3.3,3l-7.8,6.5h-0.4l-7.3-6.2l2-2.1v-8.7
	c-0.8-0.2-2.3-0.4-3-0.6v-1.1c0.9-0.4,3.2-2.6,3.2-4.5V25.9l-2.3-2.3l-2.4,2.4l-0.8-0.8l9.2-9.3h0.7l5.8,5.7L374.4,25L374.4,25z
	 M22.9,36.4l-0.1-10.2l-2.3,1.6v9.5c0,1-0.2,1.9-0.5,2.6l0.3,0C21.7,39,22.9,37.6,22.9,36.4 M11.1,20.4c-3.3,3.3-6.4,7.9-6.4,13.7
	c0,13.8,9.3,20.8,21.1,20.8c7.3,0,12.5-4,15.5-7l-0.2-0.3c-3.4,2.8-8.1,5-15.3,5c-9.5,0-18.7-5.8-18.7-18.6C7.1,29,9,24,11.4,20.6
	C11.4,20.6,11.1,20.4,11.1,20.4z M36.4,15c-8.8,0-16.8-4.3-23.2-4.3c-4.1,0-8.9,1.7-10.6,6.5l0.3,0.1c1.9-3.3,6.4-4.4,10.3-4.4
	c6.4,0,14.4,4.4,23.2,4.4c7.1,0,11.2-2.4,11.9-8.1l-0.4-0.1C46.9,13.4,43.5,15,36.4,15 M3.5,34.1c0-9.4,7.1-15.9,13.7-18.8l0.5,0.6
	c-2.4,2.8-4.1,5.5-4.1,11.2c0,6.5,1.7,11,4.4,14c0.9-1,1.4-2.6,1.4-4v-9.7l11.9-8.5l0.5,0.7c-1,1.5-1.6,2.9-1.6,5.2v6.2
	c0,4.3-7.1,9-11.5,10.8c2.9,2.8,7,4,11.5,4c1.6,0,3.1-0.1,4.4-0.3V18.2C30.7,18,27,16.9,23.6,16c-3.6-1.1-7.3-2-10.4-2
	c-4.8,0-10.6,1.6-10.7,8.6c0,0.6,0.1,1.3,0.2,2l-0.9,0.3c-0.8-2.2-1.3-4.3-1.3-6.4C0.4,10.1,6.6,2.7,16.6,2.7c4.2,0,8.2,1,11.6,2
	c3.7,1.1,7.4,2,11.2,2c1.9,0,3-1,3-2.8S41.4,1.3,40,0.9L40.2,0c4.3,0.8,9,3.3,9,8.7c0,6.5-4.7,9.6-12.7,9.6h-0.8v27
	c5.2-1,8.7-3.4,11.3-7.6l0.8,0.5c-2.9,9.2-9.7,18-21.9,18C13.6,56.1,3.5,48.9,3.5,34.1 M153.3,36.4l-0.1-10.2l-2.3,1.6v9.5
	c0,1-0.2,1.9-0.5,2.6l0.3,0C152.2,39,153.3,37.6,153.3,36.4 M141.6,20.4c-3.3,3.3-6.4,7.9-6.4,13.7c0,13.9,9.3,20.8,21.1,20.8
	c7.3,0,12.5-4,15.4-7l-0.2-0.3c-3.4,2.8-8.1,5-15.2,5c-9.5,0-18.7-5.8-18.7-18.6c0-5.1,1.8-10.1,4.2-13.5L141.6,20.4L141.6,20.4z
	 M166.9,15c-8.8,0-16.8-4.3-23.2-4.3c-4.1,0-8.9,1.7-10.6,6.5l0.3,0.1c1.9-3.3,6.4-4.4,10.3-4.4c6.4,0,14.4,4.4,23.2,4.4
	c7.1,0,11.2-2.4,11.9-8.1l-0.4-0.1C177.4,13.4,174,15,166.9,15 M134,34.1c0-9.4,7.1-15.9,13.7-18.8l0.4,0.6
	c-2.4,2.8-4.1,5.5-4.1,11.2c0,6.5,1.7,11,4.4,14c0.9-1,1.4-2.6,1.4-4v-9.7l11.9-8.5l0.5,0.7c-1.1,1.5-1.6,2.9-1.6,5.2v6.2
	c0,4.3-7.1,9-11.5,10.8c2.9,2.8,7,4,11.5,4c1.6,0,3.1-0.1,4.4-0.3V18.2c-3.9-0.2-7.6-1.3-10.9-2.2c-3.6-1.1-7.3-2-10.4-2
	c-4.8,0-10.6,1.6-10.7,8.6c0,0.6,0.1,1.3,0.1,2l-0.9,0.3c-0.8-2.2-1.3-4.3-1.3-6.4c-0.1-8.5,6.1-15.9,16.1-15.9c4.2,0,8.2,1,11.6,2
	c3.7,1,7.4,2,11.2,2c1.9,0,3-1,3-2.8s-0.9-2.7-2.3-3.1l0.1-0.9c4.3,0.8,9,3.3,9,8.7c0,6.5-4.7,9.6-12.6,9.6h-0.8v27
	c5.2-1,8.7-3.4,11.3-7.6l0.8,0.5c-2.9,9.2-9.7,18-21.9,18C144.1,56.1,134,48.9,134,34.1"/>
</svg>
