<?xml version="1.0" encoding="utf-8"?>
<svg xmlns="http://www.w3.org/2000/svg" width="228" height="36" fill="none">
  <path fill="#000050" d="m5.868 34.108-.444-1.032h-3.24l-.444 1.032H0l3.54-8.064h.54l3.528 8.064h-1.74ZM4.86 31.744l-1.056-2.676-1.056 2.676H4.86ZM20.026 26.188h1.8l-3.168 8.064h-.528l-2.208-4.968-2.22 4.968h-.528l-3.168-8.064h1.8l1.764 4.68 2.076-4.824h.54l2.076 4.8 1.764-4.656ZM22.92 34.108v-7.92h2.975c1.668 0 2.856 1.008 2.856 2.556 0 1.524-1.188 2.568-2.856 2.568H24.54v2.796h-1.62Zm1.62-4.212h1.355c.756 0 1.2-.468 1.2-1.152 0-.66-.444-1.128-1.2-1.128H24.54v2.28ZM29.924 34.108v-7.92H32.9c1.668 0 2.856 1.008 2.856 2.556 0 1.524-1.188 2.568-2.856 2.568h-1.356v2.796h-1.62Zm1.62-4.212H32.9c.756 0 1.2-.468 1.2-1.152 0-.66-.444-1.128-1.2-1.128h-1.356v2.28ZM47.033 26.044h.528v8.064h-1.62v-4.224L43.95 32.38h-.528l-1.992-2.496v4.224h-1.62v-8.064h.528l3.348 4.284 3.348-4.284ZM54.665 30.796c0 .336-.06.684-.108.888h-4.164c.192.756.804 1.176 1.668 1.176.648 0 1.176-.228 1.656-.6l.672 1.104c-.672.564-1.464.888-2.376.888-1.884 0-3.252-1.356-3.252-3.108s1.356-3.108 3.108-3.108c1.668 0 2.796 1.224 2.796 2.76Zm-2.856-1.452c-.684 0-1.236.456-1.416 1.2h2.7c-.012-.756-.6-1.2-1.284-1.2ZM60.13 25.108h1.62v9H60.26v-.732c-.408.564-1.092.876-1.908.876-1.68 0-2.88-1.32-2.88-3.108s1.2-3.108 2.88-3.108c.744 0 1.356.252 1.776.708v-3.636Zm-1.477 7.668c.744 0 1.5-.492 1.5-1.632 0-1.128-.756-1.644-1.5-1.644-.84 0-1.536.624-1.536 1.632s.684 1.644 1.536 1.644ZM64.04 27.004c-.576 0-1.032-.432-1.032-.996 0-.576.456-1.008 1.032-1.008.576 0 1.044.432 1.044 1.008 0 .564-.468.996-1.044.996Zm-.804 7.104v-5.94h1.62v5.94h-1.62ZM68.775 28.036c1.512 0 2.544.852 2.544 2.544v3.528H69.83v-.576c-.42.444-1.044.72-1.812.72-1.296 0-2.052-.768-2.052-1.776 0-1.08.876-1.728 2.244-1.728h1.488v-.264c0-.648-.372-1.044-1.104-1.044-.636 0-1.08.3-1.572.816l-.84-.996c.696-.828 1.548-1.224 2.592-1.224Zm-.324 5.028c.684 0 1.248-.48 1.248-1.176v-.072h-1.272c-.528 0-.828.204-.828.6 0 .408.348.648.852.648ZM80.837 29.824c.864.312 1.404.984 1.404 1.956 0 1.368-1.068 2.328-2.604 2.328h-3.528v-7.92h2.808c1.464 0 2.508.9 2.508 2.208 0 .588-.216 1.068-.588 1.428Zm-2.052-2.244h-1.116v1.812h1.116c.672 0 1.032-.372 1.032-.912 0-.552-.36-.9-1.032-.9Zm.732 5.136c.708 0 1.128-.372 1.128-.996 0-.612-.42-.996-1.128-.996h-1.848v1.992h1.848ZM86.454 28.096c.216 0 .372.024.528.072v1.428h-.432c-.936 0-1.596.48-1.596 1.548v2.964h-1.62v-5.94h1.488v.708c.396-.504.984-.78 1.632-.78ZM90.185 28.036c1.512 0 2.544.852 2.544 2.544v3.528h-1.488v-.576c-.42.444-1.044.72-1.812.72-1.296 0-2.052-.768-2.052-1.776 0-1.08.876-1.728 2.244-1.728h1.488v-.264c0-.648-.372-1.044-1.104-1.044-.636 0-1.08.3-1.572.816l-.84-.996c.696-.828 1.548-1.224 2.592-1.224Zm-.324 5.028c.684 0 1.248-.48 1.248-1.176v-.072h-1.272c-.528 0-.828.204-.828.6 0 .408.348.648.852.648ZM97.396 28.036c1.392 0 2.232.96 2.232 2.388v3.684H98.02V30.64c0-.684-.444-1.152-1.104-1.152-.66 0-1.128.468-1.128 1.152v3.468h-1.62v-5.94h1.488v.54c.408-.408 1.008-.672 1.74-.672ZM105.388 25.108h1.62v9h-1.488v-.732c-.408.564-1.092.876-1.908.876-1.68 0-2.88-1.32-2.88-3.108s1.2-3.108 2.88-3.108c.744 0 1.356.252 1.776.708v-3.636Zm-1.476 7.668c.744 0 1.5-.492 1.5-1.632 0-1.128-.756-1.644-1.5-1.644-.84 0-1.536.624-1.536 1.632s.684 1.644 1.536 1.644ZM10.188 8.788c-.944-.554-2.028-.828-3.252-.828-1.3 0-2.473.306-3.525.917a6.761 6.761 0 0 0-2.493 2.505C.306 12.44 0 13.632 0 14.945c0 1.313.312 2.536.93 3.607a6.682 6.682 0 0 0 2.538 2.518c1.071.611 2.282.917 3.64.917a7.268 7.268 0 0 0 2.997-.618 6.397 6.397 0 0 0 2.333-1.733l-1.288-1.32a4.466 4.466 0 0 1-1.747 1.332 5.714 5.714 0 0 1-2.263.446c-1.013 0-1.906-.216-2.677-.656a4.627 4.627 0 0 1-1.805-1.836 5.27 5.27 0 0 1-.592-1.892h11.028a5.503 5.503 0 0 0 .14-1.23c0-1.281-.273-2.41-.815-3.391a5.973 5.973 0 0 0-2.232-2.307v.006Zm-5.86 1.664c.727-.421 1.575-.631 2.55-.631.976 0 1.735.197 2.391.586a3.843 3.843 0 0 1 1.518 1.663c.274.561.433 1.205.484 1.931h-9.2c.09-.662.269-1.261.556-1.79a4.432 4.432 0 0 1 1.702-1.76ZM18.207 10.292c.447-.331 1.103-.503 1.964-.503.746 0 1.415.14 2.02.414.6.274 1.104.676 1.505 1.186l1.288-1.288a4.666 4.666 0 0 0-1.976-1.606c-.823-.363-1.74-.542-2.748-.542-.956 0-1.779.16-2.48.472-.695.312-1.23.752-1.606 1.32-.37.56-.561 1.23-.561 1.988 0 .803.178 1.453.529 1.95.35.497.816.886 1.39 1.16.573.274 1.173.503 1.804.688.63.185 1.224.37 1.791.561.561.191 1.027.446 1.39.771s.542.771.542 1.345c0 .612-.255 1.09-.759 1.434-.503.344-1.205.516-2.104.516-.841 0-1.6-.16-2.276-.472-.675-.312-1.28-.796-1.816-1.446l-1.288 1.319c.401.497.873.924 1.415 1.287a6.793 6.793 0 0 0 1.817.848c.67.198 1.364.3 2.091.3 1.492 0 2.671-.357 3.538-1.078.867-.713 1.3-1.676 1.3-2.88 0-.86-.178-1.543-.528-2.046a3.81 3.81 0 0 0-1.39-1.205 9.851 9.851 0 0 0-1.804-.713 57.421 57.421 0 0 1-1.792-.542c-.56-.179-1.026-.42-1.39-.714-.363-.293-.541-.701-.541-1.217 0-.517.223-.969.675-1.3v-.007ZM30.072 10.292c.446-.331 1.102-.503 1.963-.503.746 0 1.415.14 2.02.414.6.274 1.104.676 1.505 1.186l1.288-1.288a4.666 4.666 0 0 0-1.976-1.606c-.822-.363-1.74-.542-2.748-.542-.956 0-1.778.16-2.48.472-.695.312-1.23.752-1.606 1.32-.37.56-.561 1.23-.561 1.988 0 .803.178 1.453.529 1.95.35.497.816.886 1.39 1.16.573.274 1.173.503 1.804.688.631.185 1.224.37 1.791.561.561.191 1.027.446 1.39.771s.542.771.542 1.345c0 .612-.255 1.09-.759 1.434-.503.344-1.205.516-2.104.516-.841 0-1.6-.16-2.275-.472-.676-.312-1.282-.796-1.817-1.446l-1.288 1.319c.401.497.873.924 1.415 1.287a6.793 6.793 0 0 0 1.817.848c.67.198 1.364.3 2.091.3 1.492 0 2.671-.357 3.538-1.078.867-.713 1.3-1.676 1.3-2.88 0-.86-.178-1.543-.528-2.046a3.81 3.81 0 0 0-1.39-1.205 9.851 9.851 0 0 0-1.804-.713 57.421 57.421 0 0 1-1.792-.542c-.56-.179-1.026-.42-1.39-.714-.363-.293-.541-.701-.541-1.217 0-.517.223-.969.675-1.3v-.007ZM49.031 8.788c-.943-.554-2.027-.828-3.251-.828-1.3 0-2.474.306-3.526.917a6.76 6.76 0 0 0-2.492 2.505c-.612 1.058-.918 2.25-.918 3.563 0 1.313.312 2.536.93 3.607a6.683 6.683 0 0 0 2.538 2.518c1.07.611 2.282.917 3.64.917a7.268 7.268 0 0 0 2.996-.618 6.396 6.396 0 0 0 2.334-1.733l-1.288-1.32a4.465 4.465 0 0 1-1.747 1.332 5.714 5.714 0 0 1-2.263.446c-1.014 0-1.906-.216-2.678-.656a4.627 4.627 0 0 1-1.804-1.836 5.268 5.268 0 0 1-.593-1.892h11.03a5.503 5.503 0 0 0 .14-1.23c0-1.281-.275-2.41-.817-3.391a5.974 5.974 0 0 0-2.23-2.307v.006Zm-5.859 1.664c.727-.421 1.575-.631 2.55-.631.976 0 1.734.197 2.391.586a3.844 3.844 0 0 1 1.517 1.663c.274.561.434 1.205.485 1.931h-9.2c.09-.662.268-1.261.555-1.79a4.432 4.432 0 0 1 1.702-1.76ZM64.14 8.705c-.803-.497-1.721-.745-2.748-.745-1.026 0-1.982.23-2.792.688a5.152 5.152 0 0 0-1.734 1.6V8.253h-2.002v13.46h2.002v-7.935c0-.764.172-1.44.517-2.033a3.796 3.796 0 0 1 1.402-1.402c.593-.344 1.281-.516 2.066-.516 1.147 0 2.065.37 2.766 1.103.695.732 1.046 1.695 1.046 2.88v7.903h2.034v-8.247c0-.994-.224-1.905-.676-2.747a5.164 5.164 0 0 0-1.874-2.007l-.007-.007ZM78.408 19.63a5.411 5.411 0 0 1-2.123.413c-.956 0-1.804-.216-2.55-.656a4.649 4.649 0 0 1-1.747-1.816c-.42-.772-.631-1.645-.631-2.62 0-.975.21-1.867.63-2.62.422-.751 1.002-1.35 1.748-1.79.746-.44 1.594-.657 2.55-.657.746 0 1.44.14 2.09.415.651.274 1.206.675 1.665 1.185l1.32-1.345a6.36 6.36 0 0 0-2.232-1.606 7.032 7.032 0 0 0-2.837-.573c-1.32 0-2.505.306-3.564.917a6.829 6.829 0 0 0-2.518 2.505c-.618 1.058-.93 2.25-.93 3.563 0 1.313.312 2.51.93 3.582a6.915 6.915 0 0 0 2.518 2.536c1.059.618 2.25.93 3.564.93a7.114 7.114 0 0 0 2.85-.573 6.41 6.41 0 0 0 2.276-1.632l-1.345-1.344a4.572 4.572 0 0 1-1.664 1.185ZM93.032 8.718c-.924-.503-1.989-.758-3.194-.758-1.338 0-2.537.312-3.595.93a6.925 6.925 0 0 0-2.518 2.505c-.619 1.051-.931 2.224-.931 3.524 0 1.3.312 2.511.93 3.582a6.953 6.953 0 0 0 2.538 2.55c1.07.63 2.282.943 3.64.943 1.11 0 2.104-.185 2.996-.561a6.778 6.778 0 0 0 2.334-1.619l-1.32-1.32a5.14 5.14 0 0 1-1.721 1.186c-.65.274-1.416.414-2.295.414-.995 0-1.875-.223-2.652-.675-.102-.058-.198-.128-.294-.198l8.358-8.38a6.289 6.289 0 0 0-2.276-2.136v.013Zm-8.236 6.201c0-.975.216-1.848.643-2.62a4.673 4.673 0 0 1 1.792-1.816c.765-.44 1.645-.656 2.633-.656.86 0 1.594.166 2.206.484.3.16.567.35.81.568l-7.154 7.176c-.102-.147-.204-.293-.293-.453-.427-.77-.644-1.663-.644-2.676l.007-.007ZM115.862 8.342c-.925-.523-2.021-.79-3.284-.79-1.262 0-2.269.267-3.149.803a5.175 5.175 0 0 0-1.434 1.332 4.977 4.977 0 0 0-1.448-1.332c-.886-.536-1.931-.803-3.136-.803s-2.333.261-3.264.79a5.494 5.494 0 0 0-2.174 2.16c-.516.918-.772 1.976-.772 3.18v8.019h3.755V13.97c0-.956.224-1.683.676-2.193.447-.503 1.084-.758 1.906-.758.823 0 1.479.255 1.919.758.44.504.657 1.237.657 2.193v7.73h3.78v-7.73c0-.956.217-1.683.657-2.193.44-.503 1.071-.758 1.893-.758.823 0 1.479.255 1.919.771.44.516.657 1.243.657 2.173v7.731h3.78v-8.017c0-1.205-.255-2.263-.771-3.18a5.587 5.587 0 0 0-2.161-2.161l-.006.006ZM131.353 8.457c-1.02-.6-2.199-.905-3.538-.905s-2.588.318-3.698.962a7.107 7.107 0 0 0-2.62 2.575c-.637 1.077-.963 2.307-.963 3.677s.332 2.632.989 3.722a6.986 6.986 0 0 0 2.677 2.562c1.129.619 2.416.93 3.87.93 1.128 0 2.174-.197 3.136-.598a6.418 6.418 0 0 0 2.448-1.778l-2.205-2.206a4.073 4.073 0 0 1-1.492 1.078c-.574.242-1.211.357-1.919.357-.784 0-1.473-.166-2.059-.504a3.281 3.281 0 0 1-1.358-1.434 3.828 3.828 0 0 1-.293-.79l10.104-.026c.077-.325.128-.618.16-.873a7.83 7.83 0 0 0 .044-.758c0-1.32-.293-2.499-.873-3.537a6.456 6.456 0 0 0-2.404-2.46l-.006.006Zm-5.483 2.721c.555-.331 1.205-.503 1.951-.503.708 0 1.301.146 1.792.446.484.293.86.72 1.115 1.274.121.268.223.568.294.893l-6.688.019c.07-.255.153-.504.261-.727.294-.599.721-1.07 1.275-1.402ZM147.074 9.081a5.176 5.176 0 0 0-1.243-.892c-.791-.401-1.683-.599-2.678-.599-1.3 0-2.448.312-3.448.943a6.76 6.76 0 0 0-2.378 2.575c-.581 1.09-.874 2.32-.874 3.697 0 1.376.293 2.574.874 3.664.58 1.09 1.377 1.95 2.39 2.575 1.014.631 2.155.943 3.436.943.995 0 1.894-.21 2.691-.63a5.279 5.279 0 0 0 1.262-.925v1.269h3.723V1h-3.755v8.081Zm-.217 7.655c-.293.56-.707 1-1.23 1.319-.523.312-1.141.472-1.849.472-.669 0-1.268-.16-1.804-.472a3.186 3.186 0 0 1-1.243-1.32c-.293-.56-.446-1.217-.446-1.962 0-.746.146-1.364.446-1.919a3.408 3.408 0 0 1 1.23-1.319c.523-.325 1.141-.484 1.849-.484s1.294.159 1.817.471c.523.313.937.752 1.23 1.32.294.56.447 1.204.447 1.93 0 .727-.147 1.396-.447 1.964ZM155.751 1.344c-.612 0-1.116.21-1.518.631-.401.42-.599.924-.599 1.517 0 .593.198 1.122.599 1.53.402.407.906.618 1.518.618s1.141-.204 1.53-.618c.389-.408.586-.918.586-1.53s-.197-1.096-.586-1.517c-.389-.42-.906-.63-1.53-.63ZM157.644 7.87h-3.78V21.7h3.78V7.87ZM170.477 9.202a4.818 4.818 0 0 0-1.345-1.013c-.784-.401-1.67-.599-2.665-.599-1.262 0-2.397.312-3.41.943a6.608 6.608 0 0 0-2.378 2.575c-.574 1.09-.861 2.32-.861 3.697 0 1.376.287 2.574.861 3.664.573 1.09 1.364 1.95 2.378 2.575 1.013.631 2.148.943 3.41.943.995 0 1.881-.204 2.665-.618a5.118 5.118 0 0 0 1.345-1.02v1.352h3.723V7.87h-3.723v1.331Zm-.771 8.28c-.65.694-1.498 1.045-2.55 1.045-.689 0-1.294-.16-1.817-.472a3.243 3.243 0 0 1-1.231-1.32c-.293-.56-.446-1.217-.446-1.962 0-.746.147-1.37.446-1.931.294-.561.708-1.001 1.231-1.32.523-.312 1.135-.471 1.817-.471.682 0 1.319.159 1.849.471a3.24 3.24 0 0 1 1.23 1.32c.293.56.446 1.204.446 1.93 0 1.11-.325 2.008-.975 2.71ZM185.472 18.17a4.27 4.27 0 0 1-1.703.331c-.688 0-1.3-.16-1.848-.472a3.37 3.37 0 0 1-1.288-1.319c-.313-.56-.472-1.204-.472-1.93 0-.727.159-1.39.472-1.932a3.464 3.464 0 0 1 1.288-1.288c.541-.312 1.16-.471 1.848-.471.612 0 1.167.108 1.677.312.504.21.944.516 1.301.918l2.403-2.435a6.84 6.84 0 0 0-2.378-1.72c-.918-.402-1.919-.6-3.009-.6-1.396 0-2.658.32-3.793.963a7.126 7.126 0 0 0-2.678 2.594c-.65 1.09-.975 2.32-.975 3.696 0 1.377.325 2.575.975 3.665a6.996 6.996 0 0 0 2.665 2.575c1.128.63 2.397.943 3.812.943 1.091 0 2.091-.198 3.009-.6a7.248 7.248 0 0 0 2.436-1.745l-2.436-2.435c-.363.42-.796.74-1.3.962l-.006-.012ZM200.995 8.514c-1.116-.637-2.384-.962-3.793-.962-1.409 0-2.627.318-3.755.962a7.173 7.173 0 0 0-2.665 2.575c-.65 1.077-.975 2.294-.975 3.652 0 1.357.331 2.581.988 3.677a7.252 7.252 0 0 0 2.665 2.607c1.115.637 2.371.962 3.767.962s2.652-.318 3.768-.962a7.171 7.171 0 0 0 2.652-2.607c.65-1.096.975-2.326.975-3.677s-.325-2.575-.975-3.652a7.189 7.189 0 0 0-2.652-2.575Zm-.657 8.19c-.293.56-.714 1-1.262 1.32-.542.311-1.167.47-1.874.47-.708 0-1.301-.159-1.836-.47a3.311 3.311 0 0 1-1.263-1.32c-.306-.561-.459-1.205-.459-1.931 0-.727.153-1.364.459-1.919a3.344 3.344 0 0 1 1.263-1.3c.535-.312 1.147-.472 1.836-.472.688 0 1.326.16 1.861.472.536.313.957.752 1.263 1.3.306.555.459 1.192.459 1.919 0 .726-.147 1.37-.447 1.93ZM227.222 10.509a5.587 5.587 0 0 0-2.161-2.16c-.924-.523-2.021-.79-3.283-.79s-2.27.267-3.149.802a5.193 5.193 0 0 0-1.435 1.332 4.96 4.96 0 0 0-1.447-1.332c-.886-.535-1.932-.803-3.137-.803-1.204 0-2.333.261-3.264.79a5.496 5.496 0 0 0-2.174 2.161c-.516.918-.771 1.976-.771 3.18v8.018h3.755v-7.731c0-.956.223-1.683.676-2.192.446-.504 1.084-.759 1.906-.759.822 0 1.479.255 1.919.759.44.503.657 1.236.657 2.192v7.73h3.78v-7.73c0-.956.217-1.683.657-2.192.439-.504 1.071-.759 1.893-.759.822 0 1.479.255 1.919.771.44.517.657 1.243.657 2.174v7.73H228v-8.017c0-1.205-.255-2.263-.771-3.18l-.007.006Z"/>
</svg>