<?xml version="1.0" encoding="UTF-8" standalone="no"?>
<!-- Created with Inkscape (http://www.inkscape.org/) -->

<svg
   width="300"
   height="70"
   viewBox="0 0 79.374998 18.520833"
   version="1.1"
   id="svg1"
   xml:space="preserve"
   xmlns="http://www.w3.org/2000/svg"
   xmlns:svg="http://www.w3.org/2000/svg"><defs
     id="defs1" /><g
     id="layer1"><path
       style="opacity:1;fill:#000000;fill-opacity:1;stroke-width:1.84589;stroke-linejoin:round"
       d="m 0,10.971065 h 2.884346 c 0,0.90885 0.443921,1.30424 1.471436,1.30424 0.898003,0 1.538914,-0.34996 1.538914,-1.13703 0,-0.78488 -1.726203,-1.02766 -2.988049,-1.36576 -1.511923,-0.40512 -1.895035,-1.71508 -1.895035,-2.59707 0,-1.91093 1.772845,-3.31912 4.347422,-3.31912 2.562862,0 3.837437,1.13342 3.837437,3.25223 H 6.491872 c 0,-0.6524 -0.417438,-1.18718 -1.266604,-1.18718 -0.96302,0 -1.396191,0.40293 -1.396191,0.97817 0,0.64038 0.817372,0.81359 2.352174,1.22485 1.729817,0.4635 2.496874,1.4873 2.496874,2.79652 0,1.97689 -2.04733,3.51974 -4.347425,3.51974 C 1.748388,14.440655 0,13.092795 0,10.971065 Z"
       id="path2" /><path
       style="opacity:1;fill:#000000;fill-opacity:1;stroke-width:1.84589;stroke-linejoin:round"
       d="m 8.651044,14.088705 2.100468,-9.98113 2.650256,-4.1e-4 -0.819322,3.76219 c 0.833173,-0.83318 1.66267,-1.06405 2.48305,-1.06405 1.07141,0 2.123547,0.48945 2.123547,1.80812 0,1.69966 -0.40441,3.56494 -1.003251,5.47528 h -2.583374 l 0.919647,-4.20746 c 0.149507,-0.55796 -0.156055,-1.12006 -0.986529,-1.12568 -0.759492,0 -1.177042,0.46929 -1.396192,1.40454 l -0.810963,3.9286 z"
       id="path3" /><path
       style="opacity:1;fill:#b04949;stroke:#000000;stroke-width:0.406993;stroke-linejoin:round;stroke-dasharray:none;stroke-opacity:1"
       d="m 42.655241,0.396875 v 17.83524"
       id="path4" /><path
       style="opacity:1;fill:#000000;fill-opacity:1;stroke-width:1.84589;stroke-linejoin:round"
       d="M 45.298081,15.246265 V 2.419275 l 1.82133,0.41954 4.67506,6.87255 v -6.20469 l 1.91275,0.39029 v 10.05442 l -1.21871,0.1371 -4.96628,-6.5049 v 7.28183 z"
       id="path5" /><path
       style="opacity:1;fill:none;stroke:#000000;stroke-width:0.271328;stroke-linejoin:round;stroke-dasharray:none;stroke-opacity:1"
       d="m 45.678931,15.611885 2.17846,-0.36562 v -6.70294"
       id="path6" /><path
       style="opacity:1;fill:none;stroke:#000000;stroke-width:0.271328;stroke-linejoin:round;stroke-dasharray:none;stroke-opacity:1"
       d="m 52.640851,14.591205 1.49293,-0.1828 V 3.973135"
       id="path7" /><path
       style="opacity:1;fill:#000000;fill-opacity:1;stroke-width:1.84589;stroke-linejoin:round"
       d="m 55.763811,4.064545 v 9.58215 l 1.49208,-0.0897 v -9.41476 z"
       id="path8" /><path
       style="opacity:1;fill:none;stroke:#000000;stroke-width:0.271328;stroke-linejoin:round;stroke-dasharray:none;stroke-opacity:1"
       d="m 57.676011,4.271485 v 9.73321 h -1.4628"
       id="path9" /><path
       style="opacity:1;fill:#000000;fill-opacity:1;stroke-width:1.84589;stroke-linejoin:round"
       d="m 59.184091,13.266135 v -8.91215 l 1.21084,0.12187 3.93036,5.11861 v -4.87487 l 1.6148,0.24375 v 7.75408 l -1.31012,0.28944 -3.77802,-4.9815 -0.0844,5.20846 z"
       id="path10" /><path
       style="opacity:1;fill:none;stroke:#000000;stroke-width:0.271328;stroke-linejoin:round;stroke-dasharray:none;stroke-opacity:1"
       d="m 59.259491,13.772425 h 1.96051 l -0.0431,-4.79356"
       id="path11" /><path
       style="opacity:1;fill:none;stroke:#000000;stroke-width:0.271328;stroke-linejoin:round;stroke-dasharray:none;stroke-opacity:1"
       d="m 65.054841,13.416945 1.2711,-0.23698 v -8.06826"
       id="path12" /><path
       style="opacity:1;fill:#000000;fill-opacity:1;stroke-width:1.84589;stroke-linejoin:round"
       d="m 66.455221,17.219475 c 3.59646,-1.49959 2.88475,-4.6115 2.98385,-12.04313 l -1.52963,-0.1939 c 0,7.11091 0.16171,8.66425 -1.45422,12.23703 z"
       id="path13" /><path
       style="display:inline;opacity:1;fill:none;stroke:#000000;stroke-width:0.271328;stroke-linejoin:round;stroke-dasharray:none;stroke-opacity:1"
       d="m 66.557071,17.790335 c 2.90615,-1.63595 3.36674,-3.02102 3.36674,-7.31544 v -5.25546"
       id="path14" /><path
       style="opacity:1;fill:#000000;fill-opacity:1;stroke-width:1.84589;stroke-linejoin:round"
       d="m 70.708321,12.367045 3.01633,-7.14761 h 1.85854 l 2.93253,7.15523 h -1.69858 l -0.59412,-1.24919 h -3.16867 l -0.41893,1.27966 z"
       id="path15" /><path
       style="opacity:1;fill:none;stroke:#000000;stroke-width:0.271328;stroke-linejoin:round;stroke-dasharray:none;stroke-opacity:1"
       d="m 70.708321,12.976405 h 2.16322 l 0.51795,-1.47152"
       id="path16" /><path
       style="opacity:1;fill:none;stroke:#000000;stroke-width:0.271328;stroke-linejoin:round;stroke-dasharray:none;stroke-opacity:1"
       d="m 76.939011,12.976405 h 2.30033 l -3.1839,-7.75697"
       id="path17" /><path
       style="opacity:1;fill:#000000;fill-opacity:1;stroke-width:1.84589;stroke-linejoin:round"
       d="m 33.659335,4.107575 -2.117519,9.98113 h 2.574535 l 0.45702,-2.02634 0.65506,-0.59413 1.06638,2.62047 h 3.00109 l -1.85855,-4.26573 3.2296,-2.86399 -3.15342,4.9e-4 -2.26986,2.13945 1.11207,-4.99135 z"
       id="path18" /><path
       style="opacity:1;fill:#000000;fill-opacity:1;stroke-width:1.84589;stroke-linejoin:round"
       d="m 18.227336,8.878465 h 2.620241 c 0.21793,-0.43576 0.416912,-0.82263 1.073995,-0.82263 0.669486,0 0.898803,0.36563 0.898803,0.86072 0.0094,0.5826 -0.732422,0.92165 -1.401524,0.92165 -0.512587,0 -1.245663,-0.0729 -2.841133,0.44178 -0.61029,0.16353 -1.249185,1.04434 -1.249185,2.02612 0,1.25281 0.845396,1.99566 2.239391,1.99566 1.109367,0 1.891885,-0.40928 2.544072,-0.92166 v 0.59412 h 2.414582 c 0.100673,-1.8069 0.786053,-2.34938 0.93027,-5.32929 -0.160315,-1.30852 -1.10738,-1.90818 -2.617062,-1.90818 -2.270037,0 -3.716178,0.26809 -4.61245,2.14171 z"
       id="path19" /><path
       style="opacity:1;fill:#000000;fill-opacity:1;stroke-width:1.84589;stroke-linejoin:round"
       d="m 27.017331,6.889095 -1.560483,7.19961 2.779199,-2.9e-4 0.88357,-3.91506 c 0.432811,-1.38281 1.660858,-1.25099 2.757347,-0.95974 l 0.626579,-2.33843 c -1.381871,-0.40849 -2.164618,0.24112 -3.155418,1.03593 l 0.220894,-1.00544 z"
       id="path20" /><path
       style="opacity:1;fill:#ffffff;fill-opacity:1;stroke-width:1.84589;stroke-linejoin:round"
       d="m 73.480911,9.739195 1.27964,-2.74974 1.06638,2.81828 z"
       id="path21" /><path
       style="opacity:1;fill:#b04949;stroke:#000000;stroke-width:0.271328;stroke-linejoin:round;stroke-dasharray:none;stroke-opacity:1"
       d="m 74.189291,9.274555 0.42273,-1.04353"
       id="path22" /><path
       style="opacity:1;fill:#ffffff;fill-opacity:1;stroke-width:1.84589;stroke-linejoin:round"
       d="m 22.522935,10.743955 c -0.165747,1.1201 -0.586537,1.98557 -1.504166,1.99436 -0.650327,0 -0.937166,-0.24407 -0.937166,-0.77559 6.18e-4,-0.77248 0.646276,-1.05124 1.881375,-0.94761 0.178747,-0.0114 0.361097,-0.0587 0.559957,-0.27116 z"
       id="path23" /></g></svg>
